. 
  
http://www.torrentday.com/        :     The Hottest Private Tracker On The Net!!!


               www . TorrentDay . Com 
(((((((((((((= Enjoy No RAR releases =))))))))))))))))))))


...................................NFO:....................................

.[img]http://img717.imageshack.us/img717/1870/hardbreakersposter.jpg[/img]

Hard Breakers 2010 DVDRip READNFO XVID AC3 Hive-CM8



[b]Thx Hive

CM8 Doing It Right The First Time :D

Source: Hard.Breakers.2010.PAL.Retail.NLSubs-DMT

Video: 720x400 @bitrate 1600 2pass
Audio: AC3 2.0 Stereo (same as on dvd)
Sample: yes included

Encode:
I only call this release DVDRip and not DVDScr because the DMT Dvd has a menu and bonus material, but has a low bitrate.
Along with the stereo audio and a bad interlace on the dvd itself it looks more like a dvdscr to me.
i deinterlaced the dvd correct but still some texture-errors are visible, like they are interlaced, which they are not.
Even when watching the dvd itself this texture-errors are visible, which has nothing to do with the interlace itself.
i added a pic of the source dvd where you can see what i mean.
There is also some pixelation in the disco mudfight scene which are also on the sourcedvd.
Added brightness,sharpness,chroma, and corrected rgb colours.
enjoy[/b]


[url]http://www.imdb.com/title/tt1220627/[/url]


General
Complete name                    : Hard.Breakers.2010.DVDRip.XVID.AC3.Hive-CM8.avi
Format                           : AVI
Format/Info                      : Audio Video Interleave
File size                        : 1.28 GiB
Duration                         : 1h 38mn
Overall bit rate                 : 1 864 Kbps
Writing application              : Nandub v1.0rc2
Writing library                  : Nandub build 1853/release

Video
ID                               : 0
Format                           : MPEG-4 Visual
Format profile                   : Advanced Simple@L5
Format settings, BVOP            : Yes
Format settings, QPel            : Yes
Format settings, GMC             : No warppoints
Format settings, Matrix          : Default (H.263)
Muxing mode                      : Packed bitstream
Codec ID                         : XVID
Codec ID/Hint                    : XviD
Duration                         : 1h 38mn
Bit rate                         : 1 599 Kbps
Width                            : 720 pixels
Height                           : 400 pixels
Display aspect ratio             : 16:9
Frame rate                       : 25.000 fps
Color space                      : YUV
Chroma subsampling               : 4:2:0
Bit depth                        : 8 bits
Scan type                        : Progressive
Bits/(Pixel*Frame)               : 0.222
Stream size                      : 1.10 GiB (86%)
Writing library                  : XviD 1.2.1 (UTC 2008-12-04)

Audio
ID                               : 1
Format                           : AC-3
Format/Info                      : Audio Coding 3
Mode extension                   : CM (complete main)
Codec ID                         : 2000
Duration                         : 1h 38mn
Bit rate mode                    : Constant
Bit rate                         : 256 Kbps
Channel(s)                       : 2 channels
Channel positions                : Front: L R
Sampling rate                    : 48.0 KHz
Bit depth                        : 16 bits
Stream size                      : 180 MiB (14%)
Alignment                        : Split accross interleaves
Interleave, duration             : 40 ms (1.00 video frame)
Interleave, preload duration     : 500 ms




Lochlyn Munro as Jarod 
Chris Kattan as Hertz Waters 
Artie Baxter as Surfer Babe
Brendan Miller as Steve
Tom Arnold as Harold
Sophie Monk as Lindsay Greene



A comedy centered on two single girls working the dating scene in Los Angeles. 



[img]http://img521.imageshack.us/img521/1350/94075485.png[/img]
[img]http://img824.imageshack.us/img824/5879/hahahh.png[/img]
[img]http://img213.imageshack.us/img213/3152/hahahhaa.png[/img]
[img]http://img143.imageshack.us/img143/4342/hahahhahaa.png[/img]
[img]http://img441.imageshack.us/img441/1298/hahhaa.png[/img]
[img]http://img196.imageshack.us/img196/3493/hahhaahahhahaa.png[/img]
[img]http://img341.imageshack.us/img341/913/hahhaahhahaa.png[/img]

orig vob pic with the texture error:

[img]http://img801.imageshack.us/img801/8640/orig.png[/img]



Greetz

iNK,LUSi,,MAGNET,CLASSiFiED,THC,LEGi0N,IMAGiNE,ViSiON,WBZ,FLAWL3SS,NOVA
Rapeseed,D2U,SAFC,goldadvance,MEMORY100,KaN1vE,Unevano,Pinnz,Wayne,Mr Hive
and all P2P groups 
Great Work Guys :D